<?xml version="1.0" encoding="UTF-8" standalone="no"?>
<!-- Created with Inkscape (http://www.inkscape.org/) -->

<svg
   xmlns:dc="http://purl.org/dc/elements/1.1/"
   xmlns:cc="http://creativecommons.org/ns#"
   xmlns:rdf="http://www.w3.org/1999/02/22-rdf-syntax-ns#"
   xmlns:svg="http://www.w3.org/2000/svg"
   xmlns="http://www.w3.org/2000/svg"
   xmlns:xlink="http://www.w3.org/1999/xlink"
   xmlns:sodipodi="http://sodipodi.sourceforge.net/DTD/sodipodi-0.dtd"
   xmlns:inkscape="http://www.inkscape.org/namespaces/inkscape"
   width="1052.3622"
   height="744.09448"
   id="svg2"
   version="1.1"
   inkscape:version="0.48.2 r9819"
   sodipodi:docname="mak_new_logo_final.svg"
   inkscape:export-filename="F:\Documents\Clients projects\2012\makara's_new_id\logo\final\mak_new_logo_final.png"
   inkscape:export-xdpi="300"
   inkscape:export-ydpi="300">
  <defs
     id="defs4">
    <clipPath
       id="clipPath3101"
       clipPathUnits="userSpaceOnUse">
      <path
         id="path3103"
         d="m 0,595.28 841.89,0 L 841.89,0 0,0 0,595.28 z"
         inkscape:connector-curvature="0" />
    </clipPath>
  
    <clipPath
       id="clipPath3067"
       clipPathUnits="userSpaceOnUse">
      <path
         id="path3069"
         d="m 0,595.28 841.89,0 L 841.89,0 0,0 0,595.28 z"
         inkscape:connector-curvature="0" />
    </clipPath>
    
    <clipPath
       id="clipPath3009"
       clipPathUnits="userSpaceOnUse">
      <path
         id="path3011"
         d="m 0,595.28 841.89,0 L 841.89,0 0,0 0,595.28 z"
         inkscape:connector-curvature="0" />
    </clipPath>
    
  
    <clipPath
       id="clipPath3348"
       clipPathUnits="userSpaceOnUse">
      <path
         id="path3350"
         d="m 0,158.739 272.126,0 L 272.126,0 0,0 0,158.739 z" />
    </clipPath>
    <mask
       id="mask3318"
       height="1"
       width="1"
       y="0"
       x="0"
       maskUnits="userSpaceOnUse">
      
    </mask>
    <mask
       id="mask3306"
       height="1"
       width="1"
       y="0"
       x="0"
       maskUnits="userSpaceOnUse">
      <g
         id="g3308">
        <g
           id="g3310"
           clip-path="url(#clipPath3302)">
          <g
             id="g3312">
            <g
               id="g3314"
               transform="matrix(163.67999,0,0,28.080002,50.322266,65.048904)">
            
            </g>
          </g>
        </g>
      </g>
    </mask>
    <clipPath
       id="clipPath3302"
       clipPathUnits="userSpaceOnUse">
      <path
         id="path3304"
         d="m 50.3223,93.1289 163.6797,0 0,-28.08 -163.6797,0 0,28.08 z" />
    </clipPath>
    <clipPath
       id="clipPath3298"
       clipPathUnits="userSpaceOnUse">
      <path
         id="path3300"
         d="m 50.3223,93.1289 163.6797,0 0,-28.0801 -163.6797,0 0,28.0801 z" />
    </clipPath>
    <clipPath
       id="clipPath3290"
       clipPathUnits="userSpaceOnUse">
      <path
         id="path3292"
         d="m 0,158.739 272.126,0 L 272.126,0 0,0 0,158.739 z" />
    </clipPath>
    
    <filter
       id="filter4388"
       inkscape:label="Drop shadow"
       width="1.5"
       height="1.5"
       x="-.25"
       y="-.25">
      <feGaussianBlur
         id="feGaussianBlur4390"
         in="SourceAlpha"
         stdDeviation="5"
         result="blur" />
      <feColorMatrix
         id="feColorMatrix4392"
         result="bluralpha"
         type="matrix"
         values="1 0 0 0 0 0 1 0 0 0 0 0 1 0 0 0 0 0 0.85 0 " />
      <feOffset
         id="feOffset4394"
         in="bluralpha"
         dx="7"
         dy="7"
         result="offsetBlur" />
      <feMerge
         id="feMerge4396">
        <feMergeNode
           id="feMergeNode4398"
           in="offsetBlur" />
        <feMergeNode
           id="feMergeNode4400"
           in="SourceGraphic" />
      </feMerge>
    </filter>
    <filter
       color-interpolation-filters="sRGB"
       inkscape:collect="always"
       id="filter4437">
      <feGaussianBlur
         inkscape:collect="always"
         stdDeviation="0.63121807"
         id="feGaussianBlur4439" />
    </filter>
    <filter
       color-interpolation-filters="sRGB"
       inkscape:collect="always"
       id="filter4477"
       x="-0.013449146"
       width="1.0268983"
       y="-0.11136888"
       height="1.2227378">
      <feGaussianBlur
         inkscape:collect="always"
         stdDeviation="0.63091114"
         id="feGaussianBlur4479" />
    </filter>
  </defs>
  <sodipodi:namedview
     id="base"
     pagecolor="#ffffff"
     bordercolor="#666666"
     borderopacity="1.0"
     inkscape:pageopacity="0.0"
     inkscape:pageshadow="2"
     inkscape:zoom="0.49497475"
     inkscape:cx="572.40842"
     inkscape:cy="480.1302"
     inkscape:document-units="px"
     inkscape:current-layer="g3692"
     showgrid="false"
     inkscape:window-width="1538"
     inkscape:window-height="878"
     inkscape:window-x="54"
     inkscape:window-y="-8"
     inkscape:window-maximized="1" />
  <metadata
     id="metadata7">
    <rdf:RDF>
      <cc:Work
         rdf:about="">
        <dc:format>image/svg+xml</dc:format>
        <dc:type
           rdf:resource="http://purl.org/dc/dcmitype/StillImage" />
        <dc:title></dc:title>
      </cc:Work>
    </rdf:RDF>
  </metadata>
  <g
     inkscape:label="Layer 1"
     inkscape:groupmode="layer"
     id="layer1"
     transform="translate(0,-308.2677)">
    <g
       id="g3692">
      <path
         inkscape:connector-curvature="0"
         d="m 268.46554,817.74339 14.71887,0 -7.26781,-18.94968 -7.45106,18.94968 z m 8.33598,-27.28566 0.12567,0 16.74004,42.0726 -4.545,0 -4.99007,-12.77101 -16.42587,0 -5.12096,12.77101 -2.71234,0 16.92853,-42.0726 z"
         style="fill:#222224;fill-opacity:1;fill-rule:nonzero;stroke:none"
         id="path3410" />
      <path
         inkscape:connector-curvature="0"
         d="m 298.74212,832.53138 0,-27.22283 6.81748,0 c 7.58197,0 11.68713,2.58142 11.68713,7.81759 0,4.3565 -3.85383,6.32006 -7.76524,6.57663 l 8.46165,12.82861 -4.48217,0 -9.22611,-14.22143 1.95832,0 c 6.69705,0 7.01647,-3.4768 7.01647,-5.74932 0,-3.35114 -2.34057,-5.55557 -7.01647,-5.55557 l -3.41398,0 0,25.52632 -4.03708,0 z"
         style="fill:#222224;fill-opacity:1;fill-rule:nonzero;stroke:none"
         id="path3414" />
      <path
         inkscape:connector-curvature="0"
         d="m 341.71062,811.30029 c -1.51847,-3.47158 -4.23605,-5.25187 -7.63957,-5.25187 -5.12097,0 -8.60301,4.10514 -8.60301,13.90201 0,6.82273 3.35114,11.80757 9.2942,11.80757 4.10515,0 6.25721,-2.32486 7.77046,-5.3566 l 1.13102,0.93727 c -2.07877,3.98471 -5.05291,5.81737 -9.66073,5.81737 -7.38824,0 -12.57204,-6.38288 -12.57204,-13.51977 0,-8.26792 4.16799,-14.97021 12.82862,-14.97021 3.84858,0 7.07405,2.01593 8.83865,5.42991 l -1.3876,1.20432 z"
         style="fill:#222224;fill-opacity:1;fill-rule:nonzero;stroke:none"
         id="path3418" />
      <path
         inkscape:connector-curvature="0"
         d="m 348.54434,832.53138 0,-45.11482 4.04232,0 0,30.06608 13.64021,0 0,-12.17409 4.04232,0 0,27.22283 -4.04232,0 0,-13.65592 -13.64021,0 0,13.65592 -4.04232,0 z"
         style="fill:#222224;fill-opacity:1;fill-rule:nonzero;stroke:none"
         id="path3422" />
      <path
         id="path3424"
         style="fill:#222224;fill-opacity:1;fill-rule:nonzero;stroke:none"
         d="m 378.43553,805.30592 4.04231,0 0,27.22284 -4.04231,0 0,-27.22284 z m -0.1885,-7.90137 c 0,-1.20431 0.94773,-2.21489 2.21489,-2.21489 1.26192,0 2.20966,1.01058 2.20966,2.21489 0,1.19908 -0.94774,2.19919 -2.20966,2.19919 -1.26716,0 -2.21489,-1.00011 -2.21489,-2.19919"
         inkscape:connector-curvature="0" />
      <path
         inkscape:connector-curvature="0"
         d="m 398.90684,832.53138 -4.03708,0 0,-25.85096 -7.07929,0 0,-1.37187 18.12759,0 0,1.37187 -7.01122,0 0,25.85096 z"
         style="fill:#222224;fill-opacity:1;fill-rule:nonzero;stroke:none"
         id="path3428" />
      <path
         inkscape:connector-curvature="0"
         d="m 427.40678,832.53138 -11.30489,0 c -2.84323,0 -5.36707,-0.26705 -5.36707,-3.48204 l 0,-19.57804 c 0,-2.58667 1.06818,-4.16275 4.92724,-4.16275 l 11.93846,0 0,1.37187 -10.04297,0 c -2.27774,0 -2.78041,0.64929 -2.78041,2.40863 l 0,8.52449 10.29955,0 0,1.39283 -10.29955,0 0,9.97489 c 0,1.07865 0.31418,2.14682 1.70175,2.14682 l 10.92789,0 0,1.4033 z"
         style="fill:#222224;fill-opacity:1;fill-rule:nonzero;stroke:none"
         id="path3432" />
      <path
         inkscape:connector-curvature="0"
         d="m 451.74134,805.3075 -9.47747,12.04843 11.31013,15.1744 -4.86964,0 -10.04296,-13.52502 10.61894,-13.69781 2.461,0 z m -18.00195,-17.89198 4.04232,0 0,45.11481 -4.04232,0 0,-45.11481 z"
         style="fill:#222224;fill-opacity:1;fill-rule:nonzero;stroke:none"
         id="path3436" />
      <path
         inkscape:connector-curvature="0"
         d="m 465.65017,832.53138 -4.04232,0 0,-25.85096 -7.07406,0 0,-1.37187 18.12761,0 0,1.37187 -7.01123,0 0,25.85096 z"
         style="fill:#222224;fill-opacity:1;fill-rule:nonzero;stroke:none"
         id="path3440" />
      <path
         id="path3442"
         style="fill:#222224;fill-opacity:1;fill-rule:nonzero;stroke:none"
         d="m 495.54764,805.30592 4.04232,0 0,27.22284 -4.04232,0 0,-27.22284 z m -0.18851,-7.90137 c 0,-1.20431 0.94774,-2.21489 2.20966,-2.21489 1.26716,0 2.21491,1.01058 2.21491,2.21489 0,1.19908 -0.94775,2.19919 -2.21491,2.19919 -1.26192,0 -2.20966,-1.00011 -2.20966,-2.19919"
         inkscape:connector-curvature="0" />
      <path
         inkscape:connector-curvature="0"
         d="m 550.01425,791.58298 -14.26855,18.64599 16.54105,22.30083 -5.2414,0 -15.28961,-20.72475 15.28961,-20.22207 2.9689,0 z m -23.43185,0 4.41933,0 0,40.94682 -4.41933,0 0,-40.94682 z"
         style="fill:#222224;fill-opacity:1;fill-rule:nonzero;stroke:none"
         id="path3446" />
      <path
         inkscape:connector-curvature="0"
         d="m 565.50807,831.75956 c 4.86963,0 8.96956,-4.41933 8.96956,-12.88619 0,-8.38835 -4.09993,-12.82339 -8.96956,-12.82339 -4.922,0 -9.03762,4.43504 -9.03762,12.82339 0,8.46686 4.11562,12.88619 9.03762,12.88619 m 0,-27.09191 c 7.20496,0 13.00664,6.93791 13.00664,14.20572 0,7.52959 -4.41408,14.28425 -13.00664,14.28425 -7.26257,0 -13.07994,-6.95363 -13.07994,-14.28425 0,-7.44585 4.42454,-14.20572 13.07994,-14.20572"
         style="fill:#222224;fill-opacity:1;fill-rule:nonzero;stroke:none"
         id="path3450" />
      <path
         inkscape:connector-curvature="0"
         d="m 584.22317,832.53138 0,-24.46337 c 0,-2.26203 1.76459,-2.75946 3.21501,-2.75946 2.20966,0 2.97415,1.00011 4.55023,3.58677 l 10.29431,17.2427 0.13095,0 0,-20.82947 1.64416,0 0,26.51595 c 0,1.14147 -0.38225,1.32999 -0.89015,1.32999 -0.88491,0 -1.43995,-1.39283 -2.33009,-2.84848 l -12.77102,-20.70905 c -0.4922,-0.89013 -0.62833,-1.39281 -1.57085,-1.39281 -0.5079,0 -0.63357,0.37701 -0.63357,1.26715 l 0,23.06008 -1.63893,0 z"
         style="fill:#222224;fill-opacity:1;fill-rule:nonzero;stroke:none"
         id="path3454" />
      <path
         inkscape:connector-curvature="0"
         d="m 624.86002,807.00505 -6.06872,0 c -1.65463,0 -5.24663,0.95298 -5.24663,4.36174 0,7.83331 13.45171,3.34066 13.45171,13.57738 0,3.33544 -1.62845,7.5872 -9.02717,7.5872 l -7.13688,0 0,-1.71223 6.63422,0 c 2.96367,0 5.93257,-0.87967 5.93257,-4.7335 0,-8.40404 -13.45694,-3.23071 -13.45694,-13.40458 0,-2.96891 2.46624,-7.37252 9.28896,-7.37252 l 5.62888,0 0,1.69651 z"
         style="fill:#222224;fill-opacity:1;fill-rule:nonzero;stroke:none"
         id="path3458" />
      <path
         inkscape:connector-curvature="0"
         d="m 640.08261,832.53138 -4.03709,0 0,-25.85096 -7.07406,0 0,-1.37187 18.12761,0 0,1.37187 -7.01646,0 0,25.85096 z"
         style="fill:#222224;fill-opacity:1;fill-rule:nonzero;stroke:none"
         id="path3462" />
      <path
         inkscape:connector-curvature="0"
         d="m 652.27816,832.53138 0,-27.22283 6.83843,0 c 7.57673,0 11.67666,2.58142 11.67666,7.81759 0,4.3565 -3.84858,6.32006 -7.76524,6.57663 l 8.46165,12.82861 -4.48216,0 -9.22613,-14.22143 1.95833,0 c 6.69705,0 7.01123,-3.4768 7.01123,-5.74932 0,-3.35114 -2.34057,-5.55557 -7.01123,-5.55557 l -3.41922,0 0,25.52632 -4.04232,0 z"
         style="fill:#222224;fill-opacity:1;fill-rule:nonzero;stroke:none"
         id="path3466" />
      <path
         inkscape:connector-curvature="0"
         d="m 680.65766,805.3075 0,18.50461 c 0,4.22035 2.46624,7.63956 6.58187,7.63956 4.15752,0 6.62375,-3.0998 6.62375,-7.70763 l 0,-18.43654 1.63891,0 0,18.37371 c 0,8.52448 -6.05825,9.47222 -9.34132,9.47222 -4.11038,0 -9.54029,-2.70709 -9.54029,-9.22088 l 0,-18.62505 4.03708,0 z"
         style="fill:#222224;fill-opacity:1;fill-rule:nonzero;stroke:none"
         id="path3470" />
      <path
         inkscape:connector-curvature="0"
         d="m 722.17367,805.3075 -9.47223,12.04843 11.30489,15.1744 -4.85916,0 -10.03773,-13.52502 10.60323,-13.69781 2.461,0 z m -17.99671,-17.89198 4.03708,0 0,45.11481 -4.03708,0 0,-45.11481 z"
         style="fill:#222224;fill-opacity:1;fill-rule:nonzero;stroke:none"
         id="path3474" />
      <path
         inkscape:connector-curvature="0"
         d="m 736.0825,832.53138 -4.03708,0 0,-25.85096 -7.07406,0 0,-1.37187 18.13284,0 0,1.37187 -7.0217,0 0,25.85096 z"
         style="fill:#222224;fill-opacity:1;fill-rule:nonzero;stroke:none"
         id="path3478" />
      <path
         inkscape:connector-curvature="0"
         d="m 758.64304,831.75956 c 4.87487,0 8.98003,-4.41933 8.98003,-12.88619 0,-8.38835 -4.10516,-12.82339 -8.98003,-12.82339 -4.91676,0 -9.02191,4.43504 -9.02191,12.82339 0,8.46686 4.10515,12.88619 9.02191,12.88619 m 0,-27.09191 c 7.20497,0 13.01711,6.93791 13.01711,14.20572 0,7.52959 -4.41408,14.28425 -13.01711,14.28425 -7.25733,0 -13.06947,-6.95363 -13.06947,-14.28425 0,-7.44585 4.42457,-14.20572 13.06947,-14.20572"
         style="fill:#222224;fill-opacity:1;fill-rule:nonzero;stroke:none"
         id="path3482" />
      <path
         inkscape:connector-curvature="0"
         d="m 777.55241,832.53138 0,-27.22283 6.82274,0 c 7.57673,0 11.69235,2.58142 11.69235,7.81759 0,4.3565 -3.86429,6.32006 -7.78094,6.57663 l 8.46165,12.82861 -4.4717,0 -9.22088,-14.22143 1.94784,0 c 6.69183,0 7.01648,-3.4768 7.01648,-5.74932 0,-3.35114 -2.34057,-5.55557 -7.01648,-5.55557 l -3.40874,0 0,25.52632 -4.04232,0 z"
         style="fill:#222224;fill-opacity:1;fill-rule:nonzero;stroke:none"
         id="path3486" />
      <g
         id="g4409"
         transform="matrix(5.0618385,0,0,5.0618385,-21.171809,400.24433)"
         style="fill:#000000;fill-opacity:0.7;filter:url(#filter4477)">
        <path
           d="m 68.950964,34.689754 h 2.725403 l 3.782887,8.930084 3.5391,-8.930084 h 2.582604 V 47.871647 H 79.0987 v -10.59736 h -0.04052 l -4.310986,10.962076 h -0.04117 L 70.04833,37.151429 H 70.00845 V 47.87229 H 68.950321 V 34.689754 z"
           id="path29-7"
           inkscape:connector-curvature="0"
           style="fill:#000000;fill-opacity:0.7" />
        <path
           d="m 90.975461,47.903165 v -13.26294 h 1.672421 v 9.361054 h 0.03731 l 3.213621,-4.123804 h 1.096079 l -2.730548,3.455479 3.566116,4.569568 h -2.172861 l -2.972407,-3.716634 h -0.03731 v 3.716634 h -1.672421 z"
           id="path31-4"
           inkscape:connector-curvature="0"
           style="fill:#000000;fill-opacity:0.7" />
        <path
           d="m 106.35273,47.903165 v -8.02569 h 3.51079 c 1.33794,0 2.41408,0.816913 2.41408,2.156136 0,1.243381 -0.61365,1.615173 -1.72774,1.967668 l 2.17286,3.901886 h -1.93229 l -2.00497,-4.014453 h 0.18589 c 1.18871,0 1.63447,-0.704346 1.63447,-1.800425 0,-0.780892 -0.39044,-1.61453 -1.78306,-1.61453 h -0.80018 v 7.429408 h -1.66985 z"
           id="path33-0"
           inkscape:connector-curvature="0"
           style="fill:#000000;fill-opacity:0.7" />
        <path
           d="m 125.97151,34.689754 h 5.38906 c 1.97345,0 3.9855,1.324429 3.9855,3.905746 0,2.848905 -1.72709,3.804114 -5.08351,3.804114 h -1.81008 v 5.472676 h -2.48097 V 34.689754 z m 2.48097,6.855639 h 1.22023 c 2.15613,0 3.19496,-1.060057 3.19496,-3.315896 0,-1.36238 -0.67154,-2.887499 -3.25607,-2.887499 h -1.15912 v 6.203395 z"
           id="path35-9"
           inkscape:connector-curvature="0"
           style="fill:#000000;fill-opacity:0.7" />
        <path
           d="m 141.45941,47.903165 v -8.02569 h 3.50887 c 1.33858,0 2.41343,0.816913 2.41343,2.156136 0,1.243381 -0.61043,1.615173 -1.72516,1.967668 l 2.1735,3.901886 h -1.93293 l -2.00562,-4.014453 h 0.18654 c 1.18678,0 1.6319,-0.704346 1.6319,-1.800425 0,-0.780892 -0.38852,-1.61453 -1.7792,-1.61453 h -0.80148 v 7.429408 h -1.66985 z"
           id="path37-4"
           inkscape:connector-curvature="0"
           style="fill:#000000;fill-opacity:0.7" />
        <path
           d="m 148.02495,39.877475 h 4.94136 v 0.595639 h -1.6364 v 7.429408 h -1.67177 v -7.428765 h -1.63383 v -0.596282 z"
           id="path39-8"
           inkscape:connector-curvature="0"
           style="fill:#000000;fill-opacity:0.7" />
        <path
           d="m 169.25569,47.903165 v -8.02569 h 3.51144 c 1.33537,0 2.41408,0.816913 2.41408,2.156136 0,1.243381 -0.61301,1.615173 -1.72838,1.967668 l 2.1735,3.901886 h -1.93165 l -2.00497,-4.014453 h 0.18461 c 1.19063,0 1.63447,-0.704346 1.63447,-1.800425 0,-0.780892 -0.38852,-1.61453 -1.78242,-1.61453 h -0.79826 v 7.429408 h -1.67242 z"
           id="path41-8"
           inkscape:connector-curvature="0"
           style="fill:#000000;fill-opacity:0.7" />
        <path
           d="m 176.48184,47.176949 c 0.5416,0.07526 1.11537,0.131221 1.63575,0.131221 0.81756,0 1.74768,-0.223204 1.74768,-1.226014 0,-1.689145 -3.58605,-1.651837 -3.58605,-3.917324 0,-1.802355 1.57786,-2.286071 2.7685,-2.286071 0.74101,0 1.37396,0.07397 1.81972,0.130578 v 0.556401 c -0.16853,-0.01865 -0.33577,-0.03731 -0.52102,-0.05467 -0.16725,-0.01994 -0.3332,-0.03666 -0.52103,-0.03666 -0.83492,0 -1.98439,-0.0386 -1.98439,1.114089 0,1.522546 3.69541,1.447287 3.69541,4.049188 0,1.578508 -1.28326,2.266131 -2.76979,2.266131 -0.83428,0 -1.53991,-0.0193 -2.28543,-0.205837 v -0.521023 z"
           id="path43-2"
           inkscape:connector-curvature="0"
           style="fill:#000000;fill-opacity:0.7" />
        <path
           d="m 89.750091,47.903165 h -1.601665 l -0.883167,-2.080877 h -2.854693 l -0.831708,2.080877 H 82.849425 L 86.229002,39.7038 h 0.02509 l 3.496003,8.199365 z m -3.918611,-5.527994 -1.202213,2.92931 h 2.418578 l -1.216365,-2.92931 z"
           id="path45-4"
           inkscape:connector-curvature="0"
           style="fill:#000000;fill-opacity:0.7" />
        <path
           d="m 105.18203,47.903165 h -1.60102 l -0.88252,-2.080877 h -2.854696 l -0.831708,2.080877 H 98.28201 l 3.38022,-8.199365 h 0.0244 l 3.49536,8.199365 z m -3.91861,-5.527994 -1.20221,2.92931 h 2.41986 l -1.21765,-2.92931 z"
           id="path47-5"
           inkscape:connector-curvature="0"
           style="fill:#000000;fill-opacity:0.7" />
        <path
           d="m 120.33159,47.903165 h -1.60102 l -0.88381,-2.080877 h -2.85469 l -0.83107,2.080877 h -0.73072 l 3.38087,-8.199365 h 0.0251 l 3.49536,8.199365 z m -3.91861,-5.527994 -1.20221,2.92931 h 2.41858 l -1.21637,-2.92931 z"
           id="path49-5"
           inkscape:connector-curvature="0"
           style="fill:#000000;fill-opacity:0.7" />
        <path
           d="m 140.28743,47.903165 h -1.59973 l -0.88317,-2.080877 h -2.85598 l -0.83106,2.080877 h -0.72944 l 3.38022,-8.199365 h 0.0238 l 3.49536,8.199365 z m -3.91668,-5.527994 -1.20478,2.92931 h 2.4205 l -1.21572,-2.92931 z"
           id="path51-1"
           inkscape:connector-curvature="0"
           style="fill:#000000;fill-opacity:0.7" />
        <path
           d="m 154.07204,47.903165 v -8.04563 h 1.39197 l 4.32835,5.536999 h 0.0251 v -5.536999 h 0.66382 v 8.04563 h -0.68826 l -5.03013,-6.420166 h -0.027 v 6.420166 h -0.66382 z"
           id="path53-7"
           inkscape:connector-curvature="0"
           style="fill:#000000;fill-opacity:0.7" />
        <path
           d="m 162.56215,47.903165 v -8.02569 h 5.41478 v 0.593709 h -3.6909 v 2.90358 h 2.94603 v 0.765454 h -2.94603 v 3.162806 h 3.7488 v 0.600141 h -5.47268 z"
           id="path55-1"
           inkscape:connector-curvature="0"
           style="fill:#000000;fill-opacity:0.7" />
      </g>
      <g
         transform="matrix(5.0618385,0,0,5.0618385,-13.792864,404.65122)"
         id="g4425"
         style="fill:#000000;fill-opacity:0.45;filter:url(#filter4437)">
        <path
           d="m 45.067508,41.792397 h 2.316946 c 0,-5.354963 0,-12.046576 0,-12.209316 0,-0.412316 -0.325479,-0.629731 -0.872875,-0.418105 -1.010528,0.393662 -11.34223,4.911771 -11.925004,5.164564 -0.582775,0.251507 -0.828492,0.710136 -0.828492,1.00281 0,0.29203 0,11.761621 0,12.31159 0,0.549969 0.681833,0.7468 1.074852,0.7468 0.282382,0 6.686467,0 10.234573,0 v -6.598343 z"
           id="path57-1"
           inkscape:connector-curvature="0"
           style="fill:#000000;fill-opacity:0.45" />
        <path
           d="m 56.061745,34.289659 c -0.332554,-0.249576 -6.203395,-4.575357 -6.779094,-4.96516 -0.310041,-0.211625 -0.495937,0.0045 -0.495937,0.412959 0,0.162097 0,6.754008 0,12.055582 h 1.851885 v 6.5977 c 2.013337,0 5.131116,0 5.282277,0 0.223847,0 0.610433,-0.194258 0.610433,-0.739724 0,-0.547396 0,-12.075522 0,-12.365623 6.44e-4,-0.290101 -0.138296,-0.745514 -0.469564,-0.995734 z"
           id="path59-5"
           inkscape:connector-curvature="0"
           style="fill:#000000;fill-opacity:0.45" />
      </g>
      <g
         id="g27"
         transform="matrix(3.2559711,0,0,3.2559711,-179.22174,493.80808)">
        <path
           d="m 154.892,23.438 h 4.237 l 5.881,13.883 5.502,-13.883 h 4.015 v 20.493 h -3.859 V 27.456 h -0.063 l -6.702,17.042 h -0.064 l -7.241,-17.233 h -0.062 v 16.667 h -1.645 V 23.438 z"
           id="path29"
           inkscape:connector-curvature="0"
           style="fill:#ffffff" />
        <path
           d="M 189.132,43.98 V 23.361 h 2.6 v 14.553 h 0.058 l 4.996,-6.411 h 1.704 l -4.245,5.372 5.544,7.104 h -3.378 l -4.621,-5.778 h -0.058 v 5.778 h -2.6 z"
           id="path31"
           inkscape:connector-curvature="0"
           style="fill:#ffffff" />
        <path
           d="M 213.038,43.98 V 31.503 h 5.458 c 2.08,0 3.753,1.27 3.753,3.352 0,1.933 -0.954,2.511 -2.686,3.059 l 3.378,6.066 h -3.004 l -3.117,-6.241 h 0.289 c 1.848,0 2.541,-1.095 2.541,-2.799 0,-1.214 -0.607,-2.51 -2.772,-2.51 h -1.244 v 11.55 h -2.596 z"
           id="path33"
           inkscape:connector-curvature="0"
           style="fill:#ffffff" />
        <path
           d="m 243.538,23.438 h 8.378 c 3.068,0 6.196,2.059 6.196,6.072 0,4.429 -2.685,5.914 -7.903,5.914 h -2.814 v 8.508 h -3.857 V 23.438 z m 3.857,10.658 h 1.897 c 3.352,0 4.967,-1.648 4.967,-5.155 0,-2.118 -1.044,-4.489 -5.062,-4.489 h -1.802 v 9.644 z"
           id="path35"
           inkscape:connector-curvature="0"
           style="fill:#ffffff" />
        <path
           d="M 267.616,43.98 V 31.503 h 5.455 c 2.081,0 3.752,1.27 3.752,3.352 0,1.933 -0.949,2.511 -2.682,3.059 l 3.379,6.066 h -3.005 l -3.118,-6.241 h 0.29 c 1.845,0 2.537,-1.095 2.537,-2.799 0,-1.214 -0.604,-2.51 -2.766,-2.51 h -1.246 v 11.55 h -2.596 z"
           id="path37"
           inkscape:connector-curvature="0"
           style="fill:#ffffff" />
        <path
           d="m 277.823,31.503 h 7.682 v 0.926 h -2.544 v 11.55 h -2.599 V 32.43 h -2.54 v -0.927 z"
           id="path39"
           inkscape:connector-curvature="0"
           style="fill:#ffffff" />
        <path
           d="M 310.829,43.98 V 31.503 h 5.459 c 2.076,0 3.753,1.27 3.753,3.352 0,1.933 -0.953,2.511 -2.687,3.059 l 3.379,6.066 h -3.003 l -3.117,-6.241 h 0.287 c 1.851,0 2.541,-1.095 2.541,-2.799 0,-1.214 -0.604,-2.51 -2.771,-2.51 h -1.241 v 11.55 h -2.6 z"
           id="path41"
           inkscape:connector-curvature="0"
           style="fill:#ffffff" />
        <path
           d="m 322.063,42.851 c 0.842,0.117 1.734,0.204 2.543,0.204 1.271,0 2.717,-0.347 2.717,-1.906 0,-2.626 -5.575,-2.568 -5.575,-6.09 0,-2.802 2.453,-3.554 4.304,-3.554 1.152,0 2.136,0.115 2.829,0.203 v 0.865 c -0.262,-0.029 -0.522,-0.058 -0.81,-0.085 -0.26,-0.031 -0.518,-0.057 -0.81,-0.057 -1.298,0 -3.085,-0.06 -3.085,1.732 0,2.367 5.745,2.25 5.745,6.295 0,2.454 -1.995,3.523 -4.306,3.523 -1.297,0 -2.394,-0.03 -3.553,-0.32 v -0.81 z"
           id="path43"
           inkscape:connector-curvature="0"
           style="fill:#ffffff" />
        <path
           d="m 187.227,43.98 h -2.49 l -1.373,-3.235 h -4.438 l -1.293,3.235 h -1.134 l 5.254,-12.747 h 0.039 l 5.435,12.747 z m -6.092,-8.594 -1.869,4.554 h 3.76 l -1.891,-4.554 z"
           id="path45"
           inkscape:connector-curvature="0"
           style="fill:#ffffff" />
        <path
           d="m 211.218,43.98 h -2.489 l -1.372,-3.235 h -4.438 l -1.293,3.235 h -1.135 l 5.255,-12.747 h 0.038 l 5.434,12.747 z m -6.092,-8.594 -1.869,4.554 h 3.762 l -1.893,-4.554 z"
           id="path47"
           inkscape:connector-curvature="0"
           style="fill:#ffffff" />
        <path
           d="m 234.77,43.98 h -2.489 l -1.374,-3.235 h -4.438 l -1.292,3.235 h -1.136 l 5.256,-12.747 h 0.039 l 5.434,12.747 z m -6.092,-8.594 -1.869,4.554 h 3.76 l -1.891,-4.554 z"
           id="path49"
           inkscape:connector-curvature="0"
           style="fill:#ffffff" />
        <path
           d="m 265.794,43.98 h -2.487 l -1.373,-3.235 h -4.44 l -1.292,3.235 h -1.134 l 5.255,-12.747 h 0.037 l 5.434,12.747 z m -6.089,-8.594 -1.873,4.554 h 3.763 l -1.89,-4.554 z"
           id="path51"
           inkscape:connector-curvature="0"
           style="fill:#ffffff" />
        <path
           d="M 287.224,43.98 V 31.472 h 2.164 l 6.729,8.608 h 0.039 v -8.608 h 1.032 V 43.98 h -1.07 l -7.82,-9.981 h -0.042 v 9.981 h -1.032 z"
           id="path53"
           inkscape:connector-curvature="0"
           style="fill:#ffffff" />
        <path
           d="M 300.423,43.98 V 31.503 h 8.418 v 0.923 h -5.738 v 4.514 h 4.58 v 1.19 h -4.58 v 4.917 h 5.828 v 0.933 h -8.508 z"
           id="path55"
           inkscape:connector-curvature="0"
           style="fill:#ffffff" />
        <path
           d="m 117.762,34.48 h 3.602 c 0,-8.325 0,-18.728 0,-18.981 0,-0.641 -0.506,-0.979 -1.357,-0.65 -1.571,0.612 -17.633,7.636 -18.539,8.029 -0.906,0.391 -1.288,1.104 -1.288,1.559 0,0.454 0,18.285 0,19.14 0,0.855 1.06,1.161 1.671,1.161 0.439,0 10.395,0 15.911,0 V 34.48 z"
           id="path57"
           inkscape:connector-curvature="0"
           style="fill:#ffffff" />
        <path
           d="m 134.854,22.816 c -0.517,-0.388 -9.644,-7.113 -10.539,-7.719 -0.482,-0.329 -0.771,0.007 -0.771,0.642 0,0.252 0,10.5 0,18.742 h 2.879 v 10.257 c 3.13,0 7.977,0 8.212,0 0.348,0 0.949,-0.302 0.949,-1.15 0,-0.851 0,-18.773 0,-19.224 0.001,-0.451 -0.215,-1.159 -0.73,-1.548 z"
           id="path59"
           inkscape:connector-curvature="0"
           style="fill:#ffffff" />
      </g>
    </g>
  </g>
</svg>
